<svg xmlns="http://www.w3.org/2000/svg" viewBox="0 0 96 96" shape-rendering="crispEdges"><rect x="30" y="18" width="36" height="10" fill="#6f7f43"/><rect x="24" y="28" width="48" height="42" rx="4" fill="#758a48"/><rect x="18" y="32" width="12" height="28" fill="#5c6e38"/><rect x="66" y="32" width="12" height="28" fill="#5c6e38"/><rect x="31" y="14" width="10" height="14" fill="#8ea75a"/><rect x="55" y="14" width="10" height="14" fill="#8ea75a"/><rect x="33" y="38" width="10" height="10" fill="#f3e7c2"/><rect x="53" y="38" width="10" height="10" fill="#f3e7c2"/><rect x="36" y="41" width="5" height="5" fill="#171421"/><rect x="55" y="41" width="5" height="5" fill="#171421"/><rect x="40" y="52" width="16" height="6" fill="#321f26"/><rect x="28" y="68" width="16" height="12" fill="#4e3b2b"/><rect x="52" y="68" width="16" height="12" fill="#4e3b2b"/><rect x="20" y="50" width="10" height="8" fill="#9aa95e"/><rect x="66" y="50" width="10" height="8" fill="#9aa95e"/><rect x="18" y="58" width="8" height="18" fill="#5b4632"/><rect x="70" y="58" width="8" height="18" fill="#5b4632"/></svg>